<?xml version="1.0" encoding="iso-8859-1"?>
<!-- Generator: Adobe Illustrator 19.0.0, SVG Export Plug-In . SVG Version: 6.00 Build 0)  -->
<svg version="1.1" id="Capa_1" xmlns="http://www.w3.org/2000/svg" xmlns:xlink="http://www.w3.org/1999/xlink" x="0px" y="0px"
	 viewBox="0 0 512 512" style="enable-background:new 0 0 512 512;" xml:space="preserve">
<rect x="7.5" y="193.56" style="fill:#C6C5CA;" width="497" height="252.03"/>
<g>
	<rect x="67.67" y="238.13" style="fill:#898890;" width="37.879" height="37.879"/>
	<rect x="143.42" y="238.13" style="fill:#898890;" width="189.4" height="37.879"/>
	<rect x="67.67" y="304.4" style="fill:#898890;" width="265.15" height="75.76"/>
	<rect x="67.67" y="380.16" style="fill:#898890;" width="37.879" height="37.879"/>
	<rect x="105.55" y="380.16" style="fill:#898890;" width="151.51" height="37.879"/>
	<rect x="257.06" y="380.16" style="fill:#898890;" width="75.76" height="37.879"/>
	<rect x="370.7" y="238.13" style="fill:#898890;" width="113.3" height="73.77"/>
	<rect x="408.41" y="342.28" style="fill:#898890;" width="37.879" height="37.879"/>
	<rect x="370.7" y="380.16" style="fill:#898890;" width="113.3" height="37.879"/>
</g>
<g>
	<rect x="47.671" y="238.13" style="fill:#FFB655;" width="37.879" height="37.879"/>
	<rect x="123.42" y="238.13" style="fill:#FFB655;" width="189.4" height="37.879"/>
</g>
<g>
	<rect x="47.666" y="304.4" style="fill:#57A4FF;" width="265.15" height="75.76"/>
	<rect x="47.666" y="380.16" style="fill:#57A4FF;" width="37.879" height="37.879"/>
</g>
<rect x="85.55" y="380.16" style="fill:#FF3F62;" width="151.51" height="37.879"/>
<rect x="237.06" y="380.16" style="fill:#57A4FF;" width="75.76" height="37.879"/>
<rect x="350.7" y="238.13" style="fill:#FF3F62;" width="113.3" height="73.77"/>
<g>
	<rect x="388.41" y="342.28" style="fill:#A7ADF0;" width="37.879" height="37.879"/>
	<rect x="350.7" y="380.16" style="fill:#A7ADF0;" width="113.3" height="37.879"/>
</g>
<g>
	<rect x="47.671" y="238.13" style="fill:#EE8700;" width="20" height="37.879"/>
	<rect x="123.42" y="238.13" style="fill:#EE8700;" width="18.801" height="37.879"/>
</g>
<g>
	<rect x="47.666" y="304.4" style="fill:#006DF0;" width="20" height="75.76"/>
	<rect x="47.666" y="380.16" style="fill:#006DF0;" width="20" height="37.879"/>
</g>
<rect x="85.55" y="380.16" style="fill:#A5001E;" width="20" height="37.879"/>
<rect x="237.06" y="380.16" style="fill:#006DF0;" width="20" height="37.879"/>
<rect x="350.7" y="238.13" style="fill:#A5001E;" width="20" height="73.77"/>
<g>
	<rect x="388.41" y="342.28" style="fill:#7C84E8;" width="20" height="37.879"/>
	<rect x="350.7" y="380.16" style="fill:#7C84E8;" width="20" height="37.879"/>
</g>
<rect x="7.5" y="193.56" style="fill:#898890;" width="30" height="252.03"/>
<g>
	<rect x="22.09" y="207.58" style="fill:#FFFFFF;" width="15" height="15"/>
	<rect x="47.09" y="207.58" style="fill:#FFFFFF;" width="15" height="15"/>
	<rect x="72.09" y="207.58" style="fill:#FFFFFF;" width="83.21" height="15"/>
	<rect x="184.91" y="391.6" style="fill:#FFFFFF;" width="15" height="15"/>
	<rect x="115.67" y="391.6" style="fill:#FFFFFF;" width="59.24" height="15"/>
	<rect x="209.91" y="391.6" style="fill:#FFFFFF;" width="15" height="15"/>
	<rect x="476.83" y="301.95" style="fill:#FFFFFF;" width="15" height="70.64"/>
	<rect x="476.83" y="407.58" style="fill:#FFFFFF;" width="15" height="15"/>
	<rect x="476.83" y="382.58" style="fill:#FFFFFF;" width="15" height="15"/>
</g>
<g>
	<rect x="456.5" y="208.58" style="fill:#1D1D1F;" width="15" height="15"/>
	<rect x="406.5" y="208.58" style="fill:#1D1D1F;" width="14.999" height="15"/>
	<rect x="431.5" y="208.58" style="fill:#1D1D1F;" width="15" height="15"/>
	<polygon style="fill:#1D1D1F;" points="388.473,186.057 388.473,201.057 497,201.057 497,438.083 15,438.083 15,392.583 0,392.583 
		0,453.083 512,453.083 512,186.057 	"/>
	<polygon style="fill:#1D1D1F;" points="15,201.057 373.473,201.057 373.473,186.057 263.5,186.057 263.5,178.556 248.5,178.556 
		248.5,186.057 0,186.057 0,377.583 15,377.583 	"/>
	<path style="fill:#1D1D1F;" d="M40.17,283.51h52.88v-52.88H40.22L40.17,283.51z M55.17,245.63h22.87v22.88H55.17V245.63z"/>
	<path style="fill:#1D1D1F;" d="M320.32,230.63h-90.76v0.036l-22.88-0.022v-0.014h-90.76v52.88h90.76v-0.036l37.88,0.036v-0.036
		l22.88,0.022v0.014h52.88V230.63z M153.8,268.51h-22.88v-22.88h22.88V268.51z M168.8,245.63h22.88v22.88H168.8V245.63z
		 M206.68,245.63h22.88v22.88h-22.88V245.63z M267.44,268.51h-22.88v-22.88h22.88V268.51z M305.32,268.51h-22.88v-22.88h22.88
		V268.51z"/>
	<path style="fill:#1D1D1F;" d="M343.2,230.63v90.75h128.63v-90.7l-37.88-0.036v-0.014H343.2z M358.2,245.63h22.87v22.88H358.2
		V245.63z M381.07,306.38H358.2v-22.87h22.87V306.38z M418.95,306.38h-22.87v-22.87h22.87V306.38z M456.83,306.38h-22.88v-22.87
		h22.88V306.38z M456.83,245.63v22.88h-22.88v-22.88H456.83z M418.95,245.63v22.88h-22.87v-22.88H418.95z"/>
	<path style="fill:#1D1D1F;" d="M433.95,334.83l-52.87-0.05v37.88H343.2v52.88h52.88v-0.036l37.87,0.036v-0.036l37.88,0.036v-52.83
		l-37.88-0.036V334.83z M381.07,410.54H358.2v-22.88h22.87V410.54z M396.08,387.66h22.87v22.88h-22.87V387.66z M456.83,387.66v22.88
		h-22.88v-22.88H456.83z M396.07,372.66v-22.88h22.88v22.88H396.07z"/>
	<path style="fill:#1D1D1F;" d="M282.44,425.54v-0.036l37.88,0.036V296.95l-52.88-0.05v0.036l-37.88-0.036v0.036l-22.88-0.022V296.9
		H153.8v0.036l-37.88-0.036v0.036l-22.87-0.022V296.9H40.22l-0.05,52.88h0.036l-0.036,37.88h0.036l-0.036,37.88h52.88v-0.045
		l136.51,0.041v0.005L282.44,425.54L282.44,425.54z M206.68,349.781h22.88v22.88h-22.88V349.781z M267.44,372.66h-22.88v-22.88
		h22.88V372.66z M282.44,349.781h22.88v22.88h-22.88V349.781z M191.68,372.66H168.8v-22.88h22.88L191.68,372.66L191.68,372.66z
		 M130.92,349.781h22.88v22.88h-22.88V349.781z M93.05,349.781h22.87v22.88H93.05V349.781z M244.56,387.66h22.88v22.88h-22.88
		V387.66z M305.32,410.54h-22.88v-22.88h22.88V410.54z M305.32,334.781h-22.88V311.9h22.88V334.781z M267.44,334.781h-22.88V311.9
		h22.88V334.781z M229.56,311.9v22.88h-22.88V311.9H229.56z M191.68,334.781H168.8V311.9h22.88L191.68,334.781L191.68,334.781z
		 M153.8,334.781h-22.88V311.9h22.88V334.781z M115.92,311.9v22.88H93.05V311.9H115.92z M55.17,311.9h22.87v22.88H55.17V311.9z
		 M78.04,349.781v22.88H55.17v-22.88H78.04z M78.04,410.54H55.17v-22.88h22.87V410.54z M93.05,410.54v-22.88h136.51v22.88H93.05z"/>
	<polygon style="fill:#1D1D1F;" points="19.83,413.6 34.83,413.6 34.83,361.17 19.88,361.17 	"/>
	<rect x="248.5" y="153.56" style="fill:#1D1D1F;" width="15" height="15"/>
	<polygon style="fill:#1D1D1F;" points="263.5,130.083 339.946,130.083 339.946,58.917 324.946,58.917 324.946,115.083 
		248.5,115.083 248.5,143.556 263.5,143.556 	"/>
</g>
<g>
</g>
<g>
</g>
<g>
</g>
<g>
</g>
<g>
</g>
<g>
</g>
<g>
</g>
<g>
</g>
<g>
</g>
<g>
</g>
<g>
</g>
<g>
</g>
<g>
</g>
<g>
</g>
<g>
</g>
</svg>
